<svg width="237" height="78" viewBox="0 0 237 78" fill="none" xmlns="http://www.w3.org/2000/svg">
<g clip-path="url(#clip0_330_11628)">
<g clip-path="url(#clip1_330_11628)">
<rect y="4" width="70" height="70" rx="35" fill="url(#paint0_linear_330_11628)"/>
<path d="M38.5648 88.0002C64.5019 88.0002 115.55 67.797 115.55 31.1425C115.55 -5.51196 121.762 -47.7998 95.8253 -47.7998C69.8882 -47.7998 -8.39844 -15.0231 -8.39844 21.6314C-8.39844 58.2859 12.6277 88.0002 38.5648 88.0002Z" fill="url(#paint1_linear_330_11628)"/>
<path d="M12.4459 39.3504L26.2805 46.8577V50.4792L7.5631 40.266V38.3942L26.2805 28.1403V31.7617L12.4459 39.3504ZM40.8069 22.5658L32.2213 59.2682H28.8033L37.511 22.5658H40.8069ZM62.0065 38.3942V40.266L43.289 50.4792V46.8577L57.1236 39.3504L43.289 31.7617V28.1403L62.0065 38.3942Z" fill="#05445E"/>
</g>
<path d="M80.1916 51V30H87.5416C90.1016 30 92.1116 30.54 93.5716 31.62C95.0516 32.68 95.7916 34.14 95.7916 36C95.7916 37.48 95.3416 38.71 94.4416 39.69C93.5416 40.67 92.2816 41.33 90.6616 41.67L97.6516 51H93.6016L86.8516 41.97C86.7716 41.99 86.6916 42 86.6116 42C86.5316 42 86.4516 42 86.3716 42H83.7316V51H80.1916ZM87.1516 41.4C88.7116 41.4 89.9416 41.03 90.8416 40.29C91.7416 39.55 92.1916 38.55 92.1916 37.29C92.1916 36.01 91.7416 35 90.8416 34.26C89.9416 33.52 88.7116 33.15 87.1516 33.15H83.7316V41.4H87.1516ZM107.2 51.3C105.68 51.3 104.3 50.96 103.06 50.28C101.82 49.6 100.85 48.67 100.15 47.49C99.4496 46.29 99.0996 44.96 99.0996 43.5C99.0996 42.02 99.4496 40.69 100.15 39.51C100.85 38.33 101.82 37.4 103.06 36.72C104.3 36.04 105.68 35.7 107.2 35.7C108.72 35.7 110.09 36.04 111.31 36.72C112.55 37.4 113.52 38.34 114.22 39.54C114.94 40.72 115.3 42.04 115.3 43.5C115.3 44.96 114.94 46.29 114.22 47.49C113.52 48.67 112.55 49.6 111.31 50.28C110.09 50.96 108.72 51.3 107.2 51.3ZM107.2 48.36C108.1 48.36 108.92 48.15 109.66 47.73C110.4 47.29 110.98 46.7 111.4 45.96C111.84 45.22 112.06 44.4 112.06 43.5C112.06 42.6 111.84 41.78 111.4 41.04C110.98 40.28 110.4 39.69 109.66 39.27C108.92 38.83 108.1 38.61 107.2 38.61C106.3 38.61 105.47 38.83 104.71 39.27C103.97 39.69 103.38 40.28 102.94 41.04C102.52 41.78 102.31 42.6 102.31 43.5C102.31 44.4 102.52 45.22 102.94 45.96C103.38 46.7 103.97 47.29 104.71 47.73C105.47 48.15 106.3 48.36 107.2 48.36ZM128.41 51.3C126.95 51.3 125.69 50.82 124.63 49.86C123.57 48.88 122.83 47.58 122.41 45.96V51H119.26V29.7H122.41V41.01C122.83 39.41 123.57 38.13 124.63 37.17C125.69 36.19 126.95 35.7 128.41 35.7C129.65 35.7 130.77 36.04 131.77 36.72C132.77 37.4 133.56 38.34 134.14 39.54C134.72 40.72 135.01 42.04 135.01 43.5C135.01 44.96 134.72 46.29 134.14 47.49C133.56 48.67 132.77 49.6 131.77 50.28C130.77 50.96 129.65 51.3 128.41 51.3ZM127.06 48.36C127.94 48.36 128.74 48.15 129.46 47.73C130.18 47.29 130.75 46.7 131.17 45.96C131.59 45.22 131.8 44.4 131.8 43.5C131.8 42.6 131.59 41.78 131.17 41.04C130.75 40.28 130.18 39.69 129.46 39.27C128.74 38.83 127.94 38.61 127.06 38.61C126.18 38.61 125.38 38.83 124.66 39.27C123.94 39.69 123.37 40.28 122.95 41.04C122.55 41.78 122.35 42.6 122.35 43.5C122.35 44.4 122.55 45.22 122.95 45.96C123.37 46.7 123.94 47.29 124.66 47.73C125.38 48.15 126.18 48.36 127.06 48.36ZM145.693 51.3C144.193 51.3 142.833 50.97 141.613 50.31C140.413 49.63 139.463 48.71 138.763 47.55C138.063 46.37 137.713 45.05 137.713 43.59C137.713 42.07 138.063 40.71 138.763 39.51C139.483 38.31 140.453 37.38 141.673 36.72C142.893 36.04 144.243 35.7 145.723 35.7C147.203 35.7 148.543 36.04 149.743 36.72C150.943 37.38 151.883 38.31 152.563 39.51C153.263 40.69 153.613 42.02 153.613 43.5C153.613 43.54 153.613 43.59 153.613 43.65C153.613 43.71 153.613 43.76 153.613 43.8H140.833C140.873 44.68 141.113 45.48 141.553 46.2C141.993 46.9 142.573 47.46 143.293 47.88C144.033 48.28 144.843 48.48 145.723 48.48C146.663 48.48 147.493 48.27 148.213 47.85C148.953 47.43 149.463 46.89 149.743 46.23H153.133C152.973 47.11 152.563 47.94 151.903 48.72C151.243 49.48 150.373 50.1 149.293 50.58C148.233 51.06 147.033 51.3 145.693 51.3ZM150.643 43.2C150.603 42.32 150.363 41.53 149.923 40.83C149.483 40.11 148.893 39.55 148.153 39.15C147.433 38.73 146.633 38.52 145.753 38.52C144.873 38.52 144.063 38.73 143.323 39.15C142.603 39.55 142.013 40.11 141.553 40.83C141.113 41.53 140.873 42.32 140.833 43.2H150.643ZM157.463 51V36H160.613V40.89C160.933 39.41 161.553 38.18 162.473 37.2C163.413 36.2 164.573 35.7 165.953 35.7C166.973 35.7 167.823 35.92 168.503 36.36C169.203 36.8 169.723 37.44 170.063 38.28C170.403 39.1 170.573 40.11 170.573 41.31V42.51H167.423V41.91C167.423 40.87 167.163 40.07 166.643 39.51C166.123 38.95 165.393 38.67 164.453 38.67C163.733 38.67 163.083 38.87 162.503 39.27C161.923 39.67 161.463 40.22 161.123 40.92C160.783 41.62 160.613 42.39 160.613 43.23V51H157.463ZM180.625 51.3C178.745 51.3 177.345 50.88 176.425 50.04C175.525 49.2 175.075 47.97 175.075 46.35V38.85H171.535V36H173.995C174.455 36 174.805 35.88 175.045 35.64C175.285 35.38 175.405 35.02 175.405 34.56V32.4H178.255L178.225 36H184.225V38.85H178.225V45.6C178.225 46.56 178.465 47.26 178.945 47.7C179.445 48.14 180.225 48.36 181.285 48.36C182.105 48.36 183.085 48.24 184.225 48V50.85C183.665 50.97 183.045 51.07 182.365 51.15C181.705 51.25 181.125 51.3 180.625 51.3ZM196.207 51V30H202.897C205.157 30 207.157 30.44 208.897 31.32C210.637 32.18 211.977 33.41 212.917 35.01C213.877 36.59 214.357 38.42 214.357 40.5C214.357 42.56 213.877 44.39 212.917 45.99C211.977 47.57 210.637 48.8 208.897 49.68C207.157 50.56 205.157 51 202.897 51H196.207ZM202.897 47.73C204.477 47.73 205.847 47.44 207.007 46.86C208.167 46.26 209.057 45.42 209.677 44.34C210.317 43.24 210.637 41.96 210.637 40.5C210.637 39.04 210.317 37.77 209.677 36.69C209.057 35.59 208.167 34.75 207.007 34.17C205.847 33.57 204.477 33.27 202.897 33.27H199.807V47.73H202.897ZM219.9 51.27C219.26 51.27 218.72 51.05 218.28 50.61C217.86 50.17 217.65 49.63 217.65 48.99C217.65 48.35 217.87 47.82 218.31 47.4C218.75 46.96 219.28 46.74 219.9 46.74C220.54 46.74 221.07 46.96 221.49 47.4C221.93 47.82 222.15 48.35 222.15 48.99C222.15 49.63 221.93 50.17 221.49 50.61C221.07 51.05 220.54 51.27 219.9 51.27Z" fill="#D0B870"/>
</g>
<defs>
<linearGradient id="paint0_linear_330_11628" x1="35" y1="4" x2="35" y2="74" gradientUnits="userSpaceOnUse">
<stop stop-color="white"/>
<stop offset="1" stop-color="#999999"/>
</linearGradient>
<linearGradient id="paint1_linear_330_11628" x1="-8.39855" y1="-44.7373" x2="12509.2" y2="8812.84" gradientUnits="userSpaceOnUse">
<stop stop-color="#D0B870"/>
<stop offset="0.5" stop-color="#F4EB95"/>
<stop offset="1" stop-color="#D0B870"/>
</linearGradient>
<clipPath id="clip0_330_11628">
<rect width="237" height="78" fill="white"/>
</clipPath>
<clipPath id="clip1_330_11628">
<rect y="4" width="70" height="70" rx="35" fill="white"/>
</clipPath>
</defs>
</svg>
